# Made in Blockbench 5.0.4
mtllib gyro.mtl

o cube.007_cube.004
v -0.878759 -0.357144 -0.070836
v 0.934427 -0.357144 1.560414
v 0.054223 -0.357144 1.560413
v 0.054223 0.017856 1.560413
v 0.934427 0.017856 1.560414
v -0.074425 0.017856 1.870998
v 1.063075 0.017856 1.870999
v 1.063075 -0.357144 1.870999
v -0.074425 -0.357144 1.870998
v 1.556825 -0.357144 0.938016
v 1.556825 0.017856 0.938016
v 1.86741 0.017856 1.066665
v 1.867409 -0.357144 1.066665
v 1.556825 -0.357144 0.057812
v 1.556825 0.017856 0.057812
v 1.86741 0.017856 -0.070836
v 1.86741 -0.357144 -0.070836
v 0.934427 -0.357144 -0.564586
v 0.934427 0.017856 -0.564586
v 1.063075 0.017856 -0.87517
v 1.063075 -0.357144 -0.87517
v 0.054223 -0.357144 -0.564586
v 0.054223 0.017856 -0.564586
v -0.074425 0.017856 -0.87517
v -0.074425 -0.357144 -0.87517
v -0.568175 -0.357144 0.057812
v -0.568174 0.017856 0.057812
v -0.878759 0.017856 -0.070836
v -0.568175 -0.357144 0.938016
v -0.568175 0.017856 0.938016
v -0.878759 0.017856 1.066664
v -0.878759 -0.357144 1.066664
vt 0.5 0.65625
vt 0.0625 0.65625
vt 0.0625 0.46875
vt 0.5 0.46875
vt 0 0.8125
vt 0.5625 0.8125
vt 0.5 0.65625
vt 0.0625 0.65625
vt 0.5625 0.8125
vt 0 0.8125
vt 0.0625 0.65625
vt 0.5 0.65625
vt 0.5625 1
vt 0 1
vt 0 0.8125
vt 0.5625 0.8125
vt 0.5 0.65625
vt 0.0625 0.65625
vt 0.0625 0.46875
vt 0.5 0.46875
vt 0 0.8125
vt 0.5625 0.8125
vt 0.5 0.65625
vt 0.0625 0.65625
vt 0.5625 0.8125
vt 0 0.8125
vt 0.0625 0.65625
vt 0.5 0.65625
vt 0.5625 1
vt 0 1
vt 0 0.8125
vt 0.5625 0.8125
vt 0.5 0.65625
vt 0.0625 0.65625
vt 0.0625 0.46875
vt 0.5 0.46875
vt 0 0.8125
vt 0.5625 0.8125
vt 0.5 0.65625
vt 0.0625 0.65625
vt 0.5625 0.8125
vt 0 0.8125
vt 0.0625 0.65625
vt 0.5 0.65625
vt 0.5625 1
vt 0 1
vt 0 0.8125
vt 0.5625 0.8125
vt 0.5 0.65625
vt 0.0625 0.65625
vt 0.0625 0.46875
vt 0.5 0.46875
vt 0 0.8125
vt 0.5625 0.8125
vt 0.5 0.65625
vt 0.0625 0.65625
vt 0.5625 0.8125
vt 0 0.8125
vt 0.0625 0.65625
vt 0.5 0.65625
vt 0.5625 1
vt 0 1
vt 0 0.8125
vt 0.5625 0.8125
vt 0.5 0.65625
vt 0.0625 0.65625
vt 0.0625 0.46875
vt 0.5 0.46875
vt 0 0.8125
vt 0.5625 0.8125
vt 0.5 0.65625
vt 0.0625 0.65625
vt 0.5625 0.8125
vt 0 0.8125
vt 0.0625 0.65625
vt 0.5 0.65625
vt 0.5625 1
vt 0 1
vt 0 0.8125
vt 0.5625 0.8125
vt 0.5 0.65625
vt 0.0625 0.65625
vt 0.0625 0.46875
vt 0.5 0.46875
vt 0 0.8125
vt 0.5625 0.8125
vt 0.5 0.65625
vt 0.0625 0.65625
vt 0.5625 0.8125
vt 0 0.8125
vt 0.0625 0.65625
vt 0.5 0.65625
vt 0.5625 1
vt 0 1
vt 0 0.8125
vt 0.5625 0.8125
vt 0.5 0.65625
vt 0.0625 0.65625
vt 0.0625 0.46875
vt 0.5 0.46875
vt 0 0.8125
vt 0.5625 0.8125
vt 0.5 0.65625
vt 0.0625 0.65625
vt 0.5625 0.8125
vt 0 0.8125
vt 0.0625 0.65625
vt 0.5 0.65625
vt 0.5625 1
vt 0 1
vt 0 0.8125
vt 0.5625 0.8125
vt 0.5 0.65625
vt 0.0625 0.65625
vt 0.0625 0.46875
vt 0.5 0.46875
vt 0 0.8125
vt 0.5625 0.8125
vt 0.5 0.65625
vt 0.0625 0.65625
vt 0.5625 0.8125
vt 0 0.8125
vt 0.0625 0.65625
vt 0.5 0.65625
vt 0.5625 1
vt 0 1
vt 0 0.8125
vt 0.5625 0.8125
vn 0.0000011361002675710269 0 -0.9999999999993547
vn 0 1 0
vn 0 -1 0
vn -8.791208792434214e-7 0 0.9999999999996138
vn -0.7071067811865476 0 -0.7071067811865475
vn 0 1 0
vn 0 -1 0
vn 0.7071063416262645 0 0.7071072207465573
vn -1 0 0
vn 0 1 0
vn 0 -1 0
vn 0.9999999999964446 -0.000002666666666437808 0
vn -0.7071067811865476 0 0.7071067811865475
vn 0 1 0
vn 0 -1 0
vn 0.7071063416262645 0 -0.7071072207465574
vn 0 0 1
vn 0 1 0
vn 0 -1 0
vn 0 0 -1
vn 0.7071067811865476 0 0.7071067811865476
vn 0 1 0
vn 0 -1 0
vn -0.7071067811865476 0 -0.7071067811865476
vn 0.9999999999964446 -0.000002666666666733867 0
vn 0 1 0
vn 0 -1 0
vn -1 0 0
vn 0.707106213135531 0 -0.7071073492371078
vn 0 1 0
vn 0 -1 0
vn -0.7071067811865475 0 0.7071067811865476
usemtl m_0
f 2/1/1 3/2/1 4/3/1 5/4/1
f 6/5/2 7/6/2 5/7/2 4/8/2
f 8/9/3 9/10/3 3/11/3 2/12/3
f 7/13/4 6/14/4 9/15/4 8/16/4
f 10/17/5 2/18/5 5/19/5 11/20/5
f 7/21/6 12/22/6 11/23/6 5/24/6
f 13/25/7 8/26/7 2/27/7 10/28/7
f 12/29/8 7/30/8 8/31/8 13/32/8
f 14/33/9 10/34/9 11/35/9 15/36/9
f 12/37/10 16/38/10 15/39/10 11/40/10
f 17/41/11 13/42/11 10/43/11 14/44/11
f 16/45/12 12/46/12 13/47/12 17/48/12
f 18/49/13 14/50/13 15/51/13 19/52/13
f 16/53/14 20/54/14 19/55/14 15/56/14
f 21/57/15 17/58/15 14/59/15 18/60/15
f 20/61/16 16/62/16 17/63/16 21/64/16
f 22/65/17 18/66/17 19/67/17 23/68/17
f 20/69/18 24/70/18 23/71/18 19/72/18
f 25/73/19 21/74/19 18/75/19 22/76/19
f 24/77/20 20/78/20 21/79/20 25/80/20
f 26/81/21 22/82/21 23/83/21 27/84/21
f 24/85/22 28/86/22 27/87/22 23/88/22
f 1/89/23 25/90/23 22/91/23 26/92/23
f 28/93/24 24/94/24 25/95/24 1/96/24
f 29/97/25 26/98/25 27/99/25 30/100/25
f 28/101/26 31/102/26 30/103/26 27/104/26
f 32/105/27 1/106/27 26/107/27 29/108/27
f 31/109/28 28/110/28 1/111/28 32/112/28
f 3/113/29 29/114/29 30/115/29 4/116/29
f 31/117/30 6/118/30 4/119/30 30/120/30
f 9/121/31 32/122/31 29/123/31 3/124/31
f 6/125/32 31/126/32 32/127/32 9/128/32