# Blender 4.0.2
# www.blender.org
mtllib gyro.mtl
o cube.007_cube.004
v 0.934427 -0.357144 1.560414
v 0.054223 -0.357144 1.560413
v 0.054223 0.017856 1.560413
v 0.934427 0.017856 1.560414
v -0.074425 0.017856 1.870998
v 1.063075 0.017856 1.870999
v 1.063075 -0.357144 1.870999
v -0.074425 -0.357144 1.870998
v 1.556825 -0.357144 0.938016
v 1.556825 0.017856 0.938016
v 1.867410 0.017856 1.066665
v 1.867409 -0.357144 1.066665
v 1.556825 -0.357144 0.057812
v 1.556825 0.017856 0.057812
v 1.867410 0.017856 -0.070836
v 1.867410 -0.357144 -0.070836
v 0.934427 -0.357144 -0.564586
v 0.934427 0.017856 -0.564586
v 1.063075 0.017856 -0.875170
v 1.063075 -0.357144 -0.875170
v 0.054223 -0.357144 -0.564586
v 0.054223 0.017856 -0.564586
v -0.074425 0.017856 -0.875170
v -0.074425 -0.357144 -0.875170
v -0.568175 -0.357144 0.057812
v -0.568174 0.017856 0.057812
v -0.878759 0.017856 -0.070836
v -0.878759 -0.357144 -0.070836
v -0.568175 -0.357144 0.938016
v -0.568175 0.017856 0.938016
v -0.878759 0.017856 1.066664
v -0.878759 -0.357144 1.066664
vn -0.0000 -0.0000 -1.0000
vn -0.0000 1.0000 -0.0000
vn -0.0000 -1.0000 -0.0000
vn -0.0000 -0.0000 1.0000
vn -0.7071 -0.0000 -0.7071
vn 0.7071 -0.0000 0.7071
vn -1.0000 -0.0000 -0.0000
vn 1.0000 -0.0000 -0.0000
vn -0.7071 -0.0000 0.7071
vn 0.7071 -0.0000 -0.7071
vt 0.500000 0.656250
vt 0.062500 0.656250
vt 0.062500 0.468750
vt 0.500000 0.468750
vt 0.000000 0.812500
vt 0.562500 0.812500
vt 0.562500 1.000000
vt 0.000000 1.000000
s 0
usemtl m_base
f 1/1/1 2/2/1 3/3/1 4/4/1
f 5/5/2 6/6/2 4/1/2 3/2/2
f 7/6/3 8/5/3 2/2/3 1/1/3
f 6/7/4 5/8/4 8/5/4 7/6/4
f 9/1/5 1/2/5 4/3/5 10/4/5
f 6/5/2 11/6/2 10/1/2 4/2/2
f 12/6/3 7/5/3 1/2/3 9/1/3
f 11/7/6 6/8/6 7/5/6 12/6/6
f 13/1/7 9/2/7 10/3/7 14/4/7
f 11/5/2 15/6/2 14/1/2 10/2/2
f 16/6/3 12/5/3 9/2/3 13/1/3
f 15/7/8 11/8/8 12/5/8 16/6/8
f 17/1/9 13/2/9 14/3/9 18/4/9
f 15/5/2 19/6/2 18/1/2 14/2/2
f 20/6/3 16/5/3 13/2/3 17/1/3
f 19/7/10 15/8/10 16/5/10 20/6/10
f 21/1/4 17/2/4 18/3/4 22/4/4
f 19/5/2 23/6/2 22/1/2 18/2/2
f 24/6/3 20/5/3 17/2/3 21/1/3
f 23/7/1 19/8/1 20/5/1 24/6/1
f 25/1/6 21/2/6 22/3/6 26/4/6
f 23/5/2 27/6/2 26/1/2 22/2/2
f 28/6/3 24/5/3 21/2/3 25/1/3
f 27/7/5 23/8/5 24/5/5 28/6/5
f 29/1/8 25/2/8 26/3/8 30/4/8
f 27/5/2 31/6/2 30/1/2 26/2/2
f 32/6/3 28/5/3 25/2/3 29/1/3
f 31/7/7 27/8/7 28/5/7 32/6/7
f 2/1/10 29/2/10 30/3/10 3/4/10
f 31/5/2 5/6/2 3/1/2 30/2/2
f 8/6/3 32/5/3 29/2/3 2/1/3
f 5/7/9 31/8/9 32/5/9 8/6/9
