# Made in Blockbench 4.11.2
mtllib item.mtl

o cube
v 0.5 0.5 0.0234375
v 0.5 0.5 0.0234375
v 0.5 -0.5 0.0234375
v 0.5 -0.5 0.0234375
v -0.5 0.5 0.0234375
v -0.5 0.5 0.0234375
v -0.5 -0.5 0.0234375
v -0.5 -0.5 0.0234375
vt 0 1
vt 0.25 1
vt 0.25 0.75
vt 0 0.75
vn 0 0 -1
usemtl m_300f2545-b98b-6220-3d0c-ec0e552d2399
f 4/4/1 7/3/1 5/2/1 2/1/1
o tube
v 0.1339745962155613 0.4999999999999999 0.03906250000000011
v 0.1339745962155613 0.49999999999999994 -0.08593749999999997
v 0.10520705918813916 0.3926380902050415 0.03906250000000008
v 0.10520705918813916 0.39263809020504153 -0.08593749999999994
v 0.3660254037844386 0.3660254037844386 0.03906250000000003
v 0.3660254037844386 0.36602540378443865 -0.08593749999999994
v 0.28743103101690226 0.2874310310169023 0.03906250000000004
v 0.28743103101690226 0.2874310310169023 -0.08593749999999996
v 0.4999999999999999 0.1339745962155613 0.039062500000000014
v 0.4999999999999999 0.13397459621556132 -0.08593749999999997
v 0.3926380902050415 0.10520705918813916 0.03906250000000003
v 0.3926380902050415 0.10520705918813919 -0.08593749999999999
v 0.4999999999999999 -0.13397459621556138 0.03906249999999998
v 0.4999999999999999 -0.13397459621556135 -0.08593750000000001
v 0.3926380902050415 -0.10520705918813922 0.039062499999999986
v 0.3926380902050415 -0.10520705918813919 -0.08593750000000001
v 0.36602540378443865 -0.3660254037844386 0.039062499999999944
v 0.36602540378443865 -0.3660254037844386 -0.08593750000000006
v 0.2874310310169023 -0.28743103101690226 0.039062499999999944
v 0.2874310310169023 -0.28743103101690226 -0.08593750000000004
v 0.1339745962155615 -0.49999999999999994 0.03906249999999997
v 0.1339745962155615 -0.4999999999999999 -0.08593750000000011
v 0.10520705918813927 -0.3926380902050414 0.039062499999999944
v 0.10520705918813927 -0.39263809020504137 -0.08593750000000003
v -0.13397459621556113 -0.5 0.03906249999999989
v -0.13397459621556113 -0.4999999999999999 -0.08593750000000006
v -0.105207059188139 -0.39263809020504153 0.039062499999999944
v -0.105207059188139 -0.3926380902050415 -0.08593750000000008
v -0.3660254037844386 -0.36602540378443876 0.039062499999999944
v -0.3660254037844386 -0.3660254037844387 -0.08593750000000008
v -0.28743103101690226 -0.28743103101690237 0.039062499999999944
v -0.28743103101690226 -0.28743103101690237 -0.08593750000000006
v -0.4999999999999999 -0.13397459621556126 0.03906249999999997
v -0.4999999999999999 -0.13397459621556126 -0.08593750000000004
v -0.3926380902050415 -0.10520705918813913 0.039062499999999986
v -0.3926380902050415 -0.10520705918813911 -0.08593750000000001
v -0.5 0.13397459621556107 0.03906250000000003
v -0.5 0.13397459621556113 -0.08593749999999997
v -0.3926380902050415 0.10520705918813897 0.039062500000000014
v -0.3926380902050415 0.105207059188139 -0.08593749999999999
v -0.3660254037844387 0.3660254037844385 0.0390625
v -0.3660254037844387 0.3660254037844386 -0.0859375
v -0.28743103101690237 0.28743103101690215 0.03906250000000003
v -0.28743103101690237 0.2874310310169022 -0.08593749999999996
v -0.1339745962155613 0.4999999999999999 0.03906250000000011
v -0.1339745962155613 0.49999999999999994 -0.08593749999999997
v -0.10520705918813913 0.3926380902050415 0.03906250000000008
v -0.10520705918813913 0.39263809020504153 -0.08593749999999994
vt 0.13505625 0.609375
vt 0.20204375000000002 0.609375
vt 0.20204375000000002 0.640625
vt 0.13505625 0.640625
vt 0.5283859375 0.78125
vt 0.4757828125 0.78125
vt 0.4757828125 0.75
vt 0.5283859375 0.75
vt 0.3856765625 0.738784375
vt 0.4312328125 0.7124828125
vt 0.45088125 0.73213125
vt 0.39286875 0.765625
vt 0.09150625 0.59375
vt 0.03349375 0.56025625
vt 0.05314218749999999 0.5406078125
vt 0.0986984375 0.566909375
vt 0.421875 1
vt 0.421875 0.9330125
vt 0.453125 0.9330125
vt 0.453125 1
vt 0.46875 0.53125
vt 0.46875 0.478646875
vt 0.5 0.478646875
vt 0.5 0.53125
vt 0.4312328125 0.7124828125
vt 0.457534375 0.6669265625
vt 0.484375 0.67411875
vt 0.45088125 0.73213125
vt 0.03349375 0.56025625
vt 0 0.50224375
vt 0.026840625000000007 0.49505156250000004
vt 0.05314218749999999 0.5406078125
vt 0.421875 0.9330125
vt 0.421875 0.866025
vt 0.453125 0.866025
vt 0.453125 0.9330125
vt 0.46875 0.478646875
vt 0.46875 0.42604375000000005
vt 0.5 0.42604375000000005
vt 0.5 0.478646875
vt 0.457534375 0.6669265625
vt 0.457534375 0.6143234375
vt 0.484375 0.60713125
vt 0.484375 0.67411875
vt 0 0.50224375
vt 0 0.43525625
vt 0.026840625000000007 0.44244843749999996
vt 0.026840625000000007 0.49505156250000004
vt 0.421875 0.866025
vt 0.421875 0.7990375
vt 0.453125 0.7990375
vt 0.453125 0.866025
vt 0.46875 0.42604375000000005
vt 0.46875 0.37344062499999997
vt 0.5 0.37344062499999997
vt 0.5 0.42604375000000005
vt 0.457534375 0.6143234375
vt 0.4312328125 0.5687671875
vt 0.45088125 0.54911875
vt 0.484375 0.60713125
vt 0 0.43525625
vt 0.03349375 0.37724375
vt 0.05314218749999999 0.3968921875
vt 0.026840625000000007 0.44244843749999996
vt 0.00015888026658826548 0.7018998986990372
vt 0.06539527868433508 0.6866835430995186
vt 0.0724937838156649 0.7171166455522835
vt 0.0072573853979180925 0.7323330011518021
vt 0.3747943896172298 1
vt 0.3409201517466031 0.959755438026364
vt 0.3648282857533969 0.9396317299109795
vt 0.39870252362402353 0.9798762918846156
vt 0.4312328125 0.5687671875
vt 0.3856765625 0.542465625
vt 0.39286875 0.515625
vt 0.45088125 0.54911875
vt 0.03349375 0.37724375
vt 0.09150625 0.34375
vt 0.0986984375 0.37059062499999995
vt 0.05314218749999999 0.3968921875
vt 0.06539527868433508 0.6866835430995186
vt 0.1306312161843351 0.6714663555995186
vt 0.1377296536843351 0.7018991680995186
vt 0.07249371618433507 0.7171163555995186
vt 0.3409201517466031 0.959755438026364
vt 0.3070467142466031 0.919510125526364
vt 0.3309545267466031 0.899386688026364
vt 0.36482796424660313 0.939632000526364
vt 0.3856765625 0.542465625
vt 0.3330734375 0.542465625
vt 0.32588125 0.515625
vt 0.39286875 0.515625
vt 0.09150625 0.34375
vt 0.15849375 0.34375
vt 0.1513015625 0.37059062499999995
vt 0.0986984375 0.37059062499999995
vt 0.1306312161843351 0.6714663555995186
vt 0.1958676146020819 0.65625
vt 0.20296611973341172 0.6866831024527649
vt 0.1377297213156649 0.7018994580522835
vt 0.3070467142466031 0.919510125526364
vt 0.27317247637597647 0.879265563552728
vt 0.2970806103827703 0.8591418554373436
vt 0.33095484825339694 0.8993864174109796
vt 0.3330734375 0.542465625
vt 0.2875171875 0.5687671875
vt 0.26786875 0.54911875
vt 0.32588125 0.515625
vt 0.15849375 0.34375
vt 0.21650625 0.37724375
vt 0.1968578125 0.3968921875
vt 0.1513015625 0.37059062499999995
vt 0.5 0.796875
vt 0.5 0.8638625
vt 0.46875 0.8638625
vt 0.46875 0.796875
vt 0.296875 0.34219062499999997
vt 0.296875 0.39479375000000005
vt 0.265625 0.39479375000000005
vt 0.265625 0.34219062499999997
vt 0.2875171875 0.5687671875
vt 0.261215625 0.6143234375
vt 0.234375 0.60713125
vt 0.26786875 0.54911875
vt 0.21650625 0.37724375
vt 0.25 0.43525625
vt 0.223159375 0.44244843749999996
vt 0.1968578125 0.3968921875
vt 0.5 0.8638625
vt 0.5 0.93085
vt 0.46875 0.93085
vt 0.46875 0.8638625
vt 0.296875 0.39479375000000005
vt 0.296875 0.447396875
vt 0.265625 0.447396875
vt 0.265625 0.39479375000000005
vt 0.261215625 0.6143234375
vt 0.261215625 0.6669265625
vt 0.234375 0.67411875
vt 0.234375 0.60713125
vt 0.25 0.43525625
vt 0.25 0.50224375
vt 0.223159375 0.49505156250000004
vt 0.223159375 0.44244843749999996
vt 0.5 0.93085
vt 0.5 0.9978375
vt 0.46875 0.9978375
vt 0.46875 0.93085
vt 0.296875 0.447396875
vt 0.296875 0.5
vt 0.265625 0.5
vt 0.265625 0.447396875
vt 0.261215625 0.6669265625
vt 0.2875171875 0.7124828125
vt 0.26786875 0.73213125
vt 0.234375 0.67411875
vt 0.25 0.50224375
vt 0.21650625 0.56025625
vt 0.1968578125 0.5406078125
vt 0.223159375 0.49505156250000004
vt 0.001081249999999992 0.609375
vt 0.06806875 0.609375
vt 0.06806875 0.640625
vt 0.001081249999999992 0.640625
vt 0.6335921875 0.78125
vt 0.5809890625 0.78125
vt 0.5809890625 0.75
vt 0.6335921875 0.75
vt 0.2875171875 0.7124828125
vt 0.3330734375 0.738784375
vt 0.32588125 0.765625
vt 0.26786875 0.73213125
vt 0.21650625 0.56025625
vt 0.15849375 0.59375
vt 0.1513015625 0.566909375
vt 0.1968578125 0.5406078125
vt 0.06806875 0.609375
vt 0.13505625 0.609375
vt 0.13505625 0.640625
vt 0.06806875 0.640625
vt 0.5809890625 0.78125
vt 0.5283859375 0.78125
vt 0.5283859375 0.75
vt 0.5809890625 0.75
vt 0.3330734375 0.738784375
vt 0.3856765625 0.738784375
vt 0.39286875 0.765625
vt 0.32588125 0.765625
vt 0.15849375 0.59375
vt 0.09150625 0.59375
vt 0.0986984375 0.566909375
vt 0.1513015625 0.566909375
vn 0.4999999999999999 0.8660254037844389 4.143408735633879e-16
vn -0.5000000000000003 -0.8660254037844387 0
vn 2.094773188900632e-16 -3.290249146747292e-17 1
vn 1.4046051528073918e-16 3.6114312141851094e-17 -1
vn 0.8660254037844388 0.4999999999999998 1.0358521839084695e-16
vn -0.8660254037844387 -0.5000000000000003 -1.3190928360612337e-16
vn 1.2961644792528356e-16 -1.3237692975404188e-18 1
vn 2.1277507938998468e-17 1.6179695924131925e-16 -1
vn 1 0 0
vn -1 0 0
vn 1.161339348087816e-17 -1.9786392540918502e-16 1
vn 3.4694469519536216e-17 1.2948152298855867e-16 -1
vn 0.8660254037844388 -0.4999999999999998 0
vn -0.8660254037844386 0.5000000000000001 0
vn -1.4484644638454205e-16 -1.4484644638454205e-16 1
vn 1.800509245757945e-18 1.783753366683482e-16 -1
vn 0.5000000000000002 -0.8660254037844387 -3.1075565517254073e-16
vn -0.5 0.8660254037844388 3.957278508183705e-16
vn -1.2926174501104239e-16 2.2388790983413816e-16 1
vn -1.8061479825143307e-16 7.271748807336724e-16 -1
vn 2.0717043678169421e-16 -1 -8.881784197001256e-16
vn -5.276371344244938e-16 1 4.440892098500627e-16
vn 2.7281318691334405e-31 -5.170469800441697e-16 1
vn -2.0717043678169394e-16 -2.0301233879082717e-16 -1
vn -0.4999999999999994 -0.866025403784439 -3.107556551725406e-16
vn 0.49999999999999956 0.8660254037844392 0
vn 0 0 1
vn 2.050913877862602e-16 1.4805826705892036e-16 -1
vn -0.866025403784439 -0.4999999999999995 0
vn 0.8660254037844389 0.4999999999999999 1.3190928360612327e-16
vn -5.892647589242626e-17 -2.6249479791470618e-16 1
vn 1.8225454641069508e-16 2.846395725973126e-16 -1
vn -1 -4.1434087356338823e-16 0
vn 1 0 0
vn 9.391675899461371e-17 -1.3190928360612352e-16 1
vn -2.1808273703562046e-18 2.330667413794059e-16 -1
vn -0.8660254037844388 0.4999999999999996 5.179260919542344e-16
vn 0.8660254037844389 -0.49999999999999956 -2.638185672122467e-16
vn -2.7217005862898556e-16 8.097959621619493e-17 1
vn 2.789596326697939e-16 -2.507648495979768e-16 -1
vn -0.5 0.8660254037844387 3.107556551725405e-16
vn 0.5000000000000003 -0.8660254037844385 -3.9572785081836964e-16
vn -1.3455682220120394e-16 -2.9457788186699566e-16 1
vn 2.328469634018892e-16 -1.9613233421850944e-16 -1
vn 0 1 4.440892098500623e-16
vn 0 -1 -4.440892098500625e-16
vn 0 -2.585234900220849e-16 1
vn 0 -2.585234900220849e-16 -1
usemtl m_300f2545-b98b-6220-3d0c-ec0e552d2399
f 9/5/2 13/6/2 14/7/2 10/8/2
f 12/9/3 16/10/3 15/11/3 11/12/3
f 11/13/4 15/14/4 13/15/4 9/16/4
f 10/17/5 14/18/5 16/19/5 12/20/5
f 13/21/6 17/22/6 18/23/6 14/24/6
f 16/25/7 20/26/7 19/27/7 15/28/7
f 15/29/8 19/30/8 17/31/8 13/32/8
f 14/33/9 18/34/9 20/35/9 16/36/9
f 17/37/10 21/38/10 22/39/10 18/40/10
f 20/41/11 24/42/11 23/43/11 19/44/11
f 19/45/12 23/46/12 21/47/12 17/48/12
f 18/49/13 22/50/13 24/51/13 20/52/13
f 21/53/14 25/54/14 26/55/14 22/56/14
f 24/57/15 28/58/15 27/59/15 23/60/15
f 23/61/16 27/62/16 25/63/16 21/64/16
f 22/65/17 26/66/17 28/67/17 24/68/17
f 25/69/18 29/70/18 30/71/18 26/72/18
f 28/73/19 32/74/19 31/75/19 27/76/19
f 27/77/20 31/78/20 29/79/20 25/80/20
f 26/81/21 30/82/21 32/83/21 28/84/21
f 29/85/22 33/86/22 34/87/22 30/88/22
f 32/89/23 36/90/23 35/91/23 31/92/23
f 31/93/24 35/94/24 33/95/24 29/96/24
f 30/97/25 34/98/25 36/99/25 32/100/25
f 33/101/26 37/102/26 38/103/26 34/104/26
f 36/105/27 40/106/27 39/107/27 35/108/27
f 35/109/28 39/110/28 37/111/28 33/112/28
f 34/113/29 38/114/29 40/115/29 36/116/29
f 37/117/30 41/118/30 42/119/30 38/120/30
f 40/121/31 44/122/31 43/123/31 39/124/31
f 39/125/32 43/126/32 41/127/32 37/128/32
f 38/129/33 42/130/33 44/131/33 40/132/33
f 41/133/34 45/134/34 46/135/34 42/136/34
f 44/137/35 48/138/35 47/139/35 43/140/35
f 43/141/36 47/142/36 45/143/36 41/144/36
f 42/145/37 46/146/37 48/147/37 44/148/37
f 45/149/38 49/150/38 50/151/38 46/152/38
f 48/153/39 52/154/39 51/155/39 47/156/39
f 47/157/40 51/158/40 49/159/40 45/160/40
f 46/161/41 50/162/41 52/163/41 48/164/41
f 49/165/42 53/166/42 54/167/42 50/168/42
f 52/169/43 56/170/43 55/171/43 51/172/43
f 51/173/44 55/174/44 53/175/44 49/176/44
f 50/177/45 54/178/45 56/179/45 52/180/45
f 53/181/46 9/182/46 10/183/46 54/184/46
f 56/185/47 12/186/47 11/187/47 55/188/47
f 55/189/48 11/190/48 9/191/48 53/192/48
f 54/193/49 10/194/49 12/195/49 56/196/49
o cube
v 0.04419417382415921 -3.469446951953614e-18 0.020312499999999956
v 0.04419417382415921 -3.469446951953614e-18 -0.04218749999999999
v -9.830099697201906e-18 -0.044194173824159216 0.020312499999999956
v -9.830099697201906e-18 -0.044194173824159216 -0.04218749999999999
v -2.8912057932946782e-18 0.044194173824159216 -0.04218749999999999
v -2.8912057932946782e-18 0.044194173824159216 0.020312499999999956
v -0.04419417382415922 3.469446951953614e-18 -0.04218749999999999
v -0.04419417382415922 3.469446951953614e-18 0.020312499999999956
vt 0 0.75
vt 0.015625 0.75
vt 0.015625 0.734375
vt 0 0.734375
vt 0.25 1
vt 0.265625 1
vt 0.265625 0.984375
vt 0.25 0.984375
vt 0.015625 0.75
vt 0.03125 0.75
vt 0.03125 0.734375
vt 0.015625 0.734375
vt 0.25 0.984375
vt 0.265625 0.984375
vt 0.265625 0.96875
vt 0.25 0.96875
vt 0.046875 0.734375
vt 0.03125 0.734375
vt 0.03125 0.75
vt 0.046875 0.75
vt 0.265625 0.96875
vt 0.25 0.96875
vt 0.25 0.953125
vt 0.265625 0.953125
vn 0 0 -1
vn 0.7071067811865475 -0.7071067811865476 0
vn 0 0 1
vn -0.7071067811865475 0.7071067811865476 0
vn 0.7071067811865476 0.7071067811865475 0
vn -0.7071067811865476 -0.7071067811865475 0
usemtl m_300f2545-b98b-6220-3d0c-ec0e552d2399
f 60/200/50 63/199/50 61/198/50 58/197/50
f 59/204/51 60/203/51 58/202/51 57/201/51
f 64/208/52 59/207/52 57/206/52 62/205/52
f 63/212/53 64/211/53 62/210/53 61/209/53
f 62/216/54 57/215/54 58/214/54 61/213/54
f 63/220/55 60/219/55 59/218/55 64/217/55
o cube
v 0.031249999999999993 0.375 0.0390625
v 0.031249999999999993 0.375 -0.0234375
v 0.031249999999999993 -0.0625 0.0390625
v 0.031249999999999993 -0.0625 -0.0234375
v -0.03125000000000001 0.375 -0.0234375
v -0.03125000000000001 0.375 0.0390625
v -0.03125000000000001 -0.0625 -0.0234375
v -0.03125000000000001 -0.0625 0.0390625
vt 0.34375 0.71875
vt 0.359375 0.71875
vt 0.359375 0.625
vt 0.34375 0.625
vt 0.34375 0.71875
vt 0.359375 0.71875
vt 0.359375 0.625
vt 0.34375 0.625
vt 0.34375 0.71875
vt 0.359375 0.71875
vt 0.359375 0.625
vt 0.34375 0.625
vt 0.34375 0.71875
vt 0.359375 0.71875
vt 0.359375 0.625
vt 0.34375 0.625
vt 0.34375 0.71875
vt 0.359375 0.71875
vt 0.359375 0.703125
vt 0.34375 0.703125
vn 0 0 -1
vn 1 0 0
vn 0 0 1
vn -1 0 0
vn 0 1 0
usemtl m_300f2545-b98b-6220-3d0c-ec0e552d2399
f 68/224/56 71/223/56 69/222/56 66/221/56
f 67/228/57 68/227/57 66/226/57 65/225/57
f 72/232/58 67/231/58 65/230/58 70/229/58
f 71/236/59 72/235/59 70/234/59 69/233/59
f 70/240/60 65/239/60 66/238/60 69/237/60
o cube
v 0.015624999999999993 0.375 0.029687499999999978
v 0.015624999999999993 0.375 -0.03281250000000002
v 0.015624999999999993 -0.0625 0.029687499999999978
v 0.015624999999999993 -0.0625 -0.03281250000000002
v -0.015625000000000007 0.375 -0.03281250000000002
v -0.015625000000000007 0.375 0.029687499999999978
v -0.015625000000000007 -0.0625 -0.03281250000000002
v -0.015625000000000007 -0.0625 0.029687499999999978
vt 0.3125 0.6875
vt 0.328125 0.6875
vt 0.328125 0.59375
vt 0.3125 0.59375
vt 0.3125 0.6875
vt 0.328125 0.6875
vt 0.328125 0.59375
vt 0.3125 0.59375
vt 0.3125 0.6875
vt 0.328125 0.6875
vt 0.328125 0.59375
vt 0.3125 0.59375
vt 0.3125 0.6875
vt 0.328125 0.6875
vt 0.328125 0.59375
vt 0.3125 0.59375
vt 0.3125 0.6875
vt 0.328125 0.6875
vt 0.328125 0.671875
vt 0.3125 0.671875
vn 0 0 -1
vn 1 0 0
vn 0 0 1
vn -1 0 0
vn 0 1 0
usemtl m_300f2545-b98b-6220-3d0c-ec0e552d2399
f 76/244/61 79/243/61 77/242/61 74/241/61
f 75/248/62 76/247/62 74/246/62 73/245/62
f 80/252/63 75/251/63 73/250/63 78/249/63
f 79/256/64 80/255/64 78/254/64 77/253/64
f 78/260/65 73/259/65 74/258/65 77/257/65
o cube
v 0.031249999999999993 0.25 0.051562499999999956
v 0.031249999999999993 0.25 -0.010937500000000044
v 0.031249999999999993 -0.0625 0.051562499999999956
v 0.031249999999999993 -0.0625 -0.010937500000000044
v -0.03125000000000001 0.25 -0.010937500000000044
v -0.03125000000000001 0.25 0.051562499999999956
v -0.03125000000000001 -0.0625 -0.010937500000000044
v -0.03125000000000001 -0.0625 0.051562499999999956
vt 0.265625 1
vt 0.28125 1
vt 0.28125 0.9375
vt 0.265625 0.9375
vt 0.265625 1
vt 0.28125 1
vt 0.28125 0.9375
vt 0.265625 0.9375
vt 0.265625 1
vt 0.28125 1
vt 0.28125 0.9375
vt 0.265625 0.9375
vt 0.265625 1
vt 0.28125 1
vt 0.28125 0.9375
vt 0.265625 0.9375
vt 0.265625 1
vt 0.28125 1
vt 0.28125 0.984375
vt 0.265625 0.984375
vn 0 0 -1
vn 1 0 0
vn 0 0 1
vn -1 0 0
vn 0 1 0
usemtl m_300f2545-b98b-6220-3d0c-ec0e552d2399
f 84/264/66 87/263/66 85/262/66 82/261/66
f 83/268/67 84/267/67 82/266/67 81/265/67
f 88/272/68 83/271/68 81/270/68 86/269/68
f 87/276/69 88/275/69 86/274/69 85/273/69
f 86/280/70 81/279/70 82/278/70 85/277/70