# Made in Blockbench 4.5.2
mtllib item.mtl

o cube
v 0.04853798254357777 0.6512605664103985 -0.5401132394132857
v 0.04853798254357777 0.5709121151995811 -0.6358687948031579
v 0.017287982543577773 0.6512605664103985 -0.5401132394132857
v 0.017287982543577773 0.5709121151995811 -0.6358687948031579
v 0.04853798254357777 0.5948510040470492 -0.6559559076058623
v 0.04853798254357777 0.6751994552578666 -0.5602003522159901
v 0.017287982543577773 0.5948510040470492 -0.6559559076058623
v 0.017287982543577773 0.6751994552578666 -0.5602003522159901
vt 0.515625 0.78125
vt 0.5234375 0.78125
vt 0.5234375 0.7734375
vt 0.515625 0.7734375
vt 0.5 0.8125
vt 0.53125 0.8125
vt 0.53125 0.8046875
vt 0.5 0.8046875
vt 0.25 0.484375
vt 0.2578125 0.484375
vt 0.2578125 0.4765625
vt 0.25 0.4765625
vt 0.203125 0.5
vt 0.234375 0.5
vt 0.234375 0.4921875
vt 0.203125 0.4921875
vt 0.5078125 0.765625
vt 0.5 0.765625
vt 0.5 0.796875
vt 0.5078125 0.796875
vt 0.2421875 0.5
vt 0.234375 0.5
vt 0.234375 0.46875
vt 0.2421875 0.46875
vn 1.1388776935361868e-16 -0.6427876096865393 -0.7660444431189781
vn 4.936613765279635e-17 -0.7660444431189781 0.6427876096865393
vn -1.1388776935361868e-16 0.6427876096865393 0.7660444431189781
vn -4.936613765279635e-17 0.7660444431189781 -0.6427876096865393
vn 1 1.0704564063266463e-16 1.2757202679552685e-16
vn -1 -1.0704564063266463e-16 -1.2757202679552685e-16
usemtl m_0
f 4/4/1 7/3/1 5/2/1 2/1/1
f 3/8/2 4/7/2 2/6/2 1/5/2
f 8/12/3 3/11/3 1/10/3 6/9/3
f 7/16/4 8/15/4 6/14/4 5/13/4
f 6/20/5 1/19/5 2/18/5 5/17/5
f 7/24/6 4/23/6 3/22/6 8/21/6
o cube
v -0.013962017456422227 0.6512605664103985 -0.5401132394132857
v -0.013962017456422171 0.5709121151995811 -0.6358687948031579
v -0.04521201745642223 0.6512605664103983 -0.5401132394132857
v -0.04521201745642217 0.5709121151995811 -0.6358687948031579
v -0.013962017456422171 0.5948510040470492 -0.6559559076058623
v -0.013962017456422227 0.6751994552578666 -0.5602003522159901
v -0.04521201745642217 0.5948510040470492 -0.6559559076058623
v -0.04521201745642223 0.6751994552578666 -0.5602003522159901
vt 0.515625 0.75
vt 0.5234375 0.75
vt 0.5234375 0.7421875
vt 0.515625 0.7421875
vt 0.5 0.765625
vt 0.53125 0.765625
vt 0.53125 0.7578125
vt 0.5 0.7578125
vt 0.265625 0.484375
vt 0.2734375 0.484375
vt 0.2734375 0.4765625
vt 0.265625 0.4765625
vt 0.25 0.5
vt 0.28125 0.5
vt 0.28125 0.4921875
vt 0.25 0.4921875
vt 0.5078125 0.71875
vt 0.5 0.71875
vt 0.5 0.75
vt 0.5078125 0.75
vt 0.2890625 0.5
vt 0.28125 0.5
vt 0.28125 0.46875
vt 0.2890625 0.46875
vn 1.1388776935361868e-16 -0.6427876096865393 -0.7660444431189781
vn 4.936613765279635e-17 -0.7660444431189781 0.6427876096865393
vn -1.1388776935361868e-16 0.6427876096865393 0.7660444431189781
vn -4.936613765279635e-17 0.7660444431189781 -0.6427876096865393
vn 1 1.0704564063266463e-16 1.2757202679552685e-16
vn -1 -1.0704564063266463e-16 -1.2757202679552685e-16
usemtl m_0
f 12/28/7 15/27/7 13/26/7 10/25/7
f 11/32/8 12/31/8 10/30/8 9/29/8
f 16/36/9 11/35/9 9/34/9 14/33/9
f 15/40/10 16/39/10 14/38/10 13/37/10
f 14/44/11 9/43/11 10/42/11 13/41/11
f 15/48/12 12/47/12 11/46/12 16/45/12