# Made in Blockbench 4.5.2
mtllib item.mtl

o cube
v 0.032912982543578106 0.4580996578359622 -0.32460662035153176
v 0.032912982543578106 0.5786223346521884 -0.4682399534363402
v -0.02958701745642195 0.4580996578359622 -0.32460662035153176
v -0.02958701745642195 0.5786223346521884 -0.4682399534363402
v 0.032912982543578106 0.6265001123471245 -0.42806572783093144
v 0.032912982543578106 0.5059774355308984 -0.28443239474612303
v -0.02958701745642195 0.6265001123471245 -0.42806572783093144
v -0.02958701745642195 0.5059774355308984 -0.28443239474612303
vt 0.171875 0.5
vt 0.1875 0.5
vt 0.1875 0.484375
vt 0.171875 0.484375
vt 0.375 0.578125
vt 0.421875 0.578125
vt 0.421875 0.5625
vt 0.375 0.5625
vt 0.1875 0.5
vt 0.203125 0.5
vt 0.203125 0.484375
vt 0.1875 0.484375
vt 0.421875 0.578125
vt 0.46875 0.578125
vt 0.46875 0.5625
vt 0.421875 0.5625
vt 0.0625 0.515625
vt 0.046875 0.515625
vt 0.046875 0.5625
vt 0.0625 0.5625
vt 0.078125 0.5625
vt 0.0625 0.5625
vt 0.0625 0.515625
vt 0.078125 0.515625
vn -1.1388776935361868e-16 0.6427876096865393 -0.7660444431189781
vn 4.936613765279635e-17 -0.7660444431189781 -0.6427876096865393
vn 1.1388776935361868e-16 -0.6427876096865393 0.7660444431189781
vn -4.936613765279635e-17 0.7660444431189781 0.6427876096865393
vn 1 1.0704564063266463e-16 -1.2757202679552685e-16
vn -1 -1.0704564063266463e-16 1.2757202679552685e-16
usemtl m_0
f 4/4/1 7/3/1 5/2/1 2/1/1
f 3/8/2 4/7/2 2/6/2 1/5/2
f 8/12/3 3/11/3 1/10/3 6/9/3
f 7/16/4 8/15/4 6/14/4 5/13/4
f 6/20/5 1/19/5 2/18/5 5/17/5
f 7/24/6 4/23/6 3/22/6 8/21/6
o cube
v 0.017287982543577773 0.5782613862318895 -0.4267487342850401
v 0.017287982543577773 0.626789957188612 -0.6078598267142403
v -0.013962017456422171 0.5782613862318895 -0.4267487342850401
v -0.013962017456422227 0.626789957188612 -0.6078598267142403
v 0.017287982543577773 0.6569751392601453 -0.5997717315547866
v 0.017287982543577773 0.6084465683034228 -0.4186606391255863
v -0.013962017456422227 0.6569751392601453 -0.5997717315547866
v -0.013962017456422227 0.6084465683034228 -0.4186606391255863
vt 0.515625 0.796875
vt 0.5234375 0.796875
vt 0.5234375 0.7890625
vt 0.515625 0.7890625
vt 0.25 0.53125
vt 0.296875 0.53125
vt 0.296875 0.5234375
vt 0.25 0.5234375
vt 0.21875 0.484375
vt 0.2265625 0.484375
vt 0.2265625 0.4765625
vt 0.21875 0.4765625
vt 0.46875 0.71875
vt 0.515625 0.71875
vt 0.515625 0.7109375
vt 0.46875 0.7109375
vt 0.4765625 0.640625
vt 0.46875 0.640625
vt 0.46875 0.6875
vt 0.4765625 0.6875
vt 0.3515625 0.53125
vt 0.34375 0.53125
vt 0.34375 0.484375
vt 0.3515625 0.484375
vn -5.74693726168631e-17 0.2588190451025208 -0.9659258262890684
vn 2.1447861848524064e-16 -0.9659258262890684 -0.2588190451025207
vn 5.74693726168631e-17 -0.2588190451025208 0.9659258262890684
vn -2.1447861848524064e-16 0.9659258262890684 0.2588190451025207
vn 1 2.2166229006234853e-16 3.0659545306208e-17
vn -1 -2.2166229006234853e-16 -3.0659545306208e-17
usemtl m_0
f 12/28/7 15/27/7 13/26/7 10/25/7
f 11/32/8 12/31/8 10/30/8 9/29/8
f 16/36/9 11/35/9 9/34/9 14/33/9
f 15/40/10 16/39/10 14/38/10 13/37/10
f 14/44/11 9/43/11 10/42/11 13/41/11
f 15/48/12 12/47/12 11/46/12 16/45/12