# Made in Blockbench 4.5.2
mtllib item.mtl

o cube
v -0.08167499079619667 0.34501020337853394 -0.354443585660894
v -0.18323909462489074 0.24344609954983976 -0.47496626247712015
v -0.03748081697203742 0.3008160295543747 -0.354443585660894
v -0.13904492080073155 0.19925192572568062 -0.47496626247712015
v -0.21164656197939347 0.21503863219533703 -0.42708848478218403
v -0.11008245815069939 0.3166027360240312 -0.3065658079659579
v -0.16745238815523428 0.1708444583711779 -0.42708848478218403
v -0.06588828432654015 0.272408562199872 -0.3065658079659579
vt 0.484375 0.671875
vt 0.5 0.671875
vt 0.5 0.65625
vt 0.484375 0.65625
vt 0.421875 0.96875
vt 0.46875 0.96875
vt 0.46875 0.953125
vt 0.421875 0.953125
vt 0.484375 0.65625
vt 0.5 0.65625
vt 0.5 0.640625
vt 0.484375 0.640625
vt 0.421875 0.796875
vt 0.46875 0.796875
vt 0.46875 0.78125
vt 0.421875 0.78125
vt 0.265625 0.53125
vt 0.25 0.53125
vt 0.25 0.578125
vt 0.265625 0.578125
vt 0.28125 0.578125
vt 0.265625 0.578125
vt 0.265625 0.53125
vt 0.28125 0.53125
vn -0.541675220419702 -0.541675220419702 -0.6427876096865393
vn 0.45451947767204354 0.45451947767204365 -0.766044443118978
vn 0.541675220419702 0.541675220419702 0.6427876096865393
vn -0.45451947767204354 -0.45451947767204365 0.766044443118978
vn -0.7071067811865476 0.7071067811865476 -5.551115123125784e-17
vn 0.7071067811865476 -0.7071067811865476 5.551115123125784e-17
usemtl m_0
f 4/4/1 7/3/1 5/2/1 2/1/1
f 3/8/2 4/7/2 2/6/2 1/5/2
f 8/12/3 3/11/3 1/10/3 6/9/3
f 7/16/4 8/15/4 6/14/4 5/13/4
f 6/20/5 1/19/5 2/18/5 5/17/5
f 7/24/6 4/23/6 3/22/6 8/21/6
o cube
v -0.16592836588268517 0.23865974137996582 -0.43145710416380967
v -0.14862287419994946 0.2559652330627016 -0.6173530156713991
v -0.14383127897060555 0.21656265446788625 -0.43145710416380967
v -0.12652578728786984 0.233868146150622 -0.6173530156713991
v -0.17053091747026128 0.23405718979238976 -0.6214319591782758
v -0.18783640915299699 0.216751698109654 -0.43553604767068627
v -0.1484338305581816 0.2119601028803102 -0.6214319591782758
v -0.16573932224091736 0.19465461119757443 -0.43553604767068627
vt 0.09375 0.484375
vt 0.1015625 0.484375
vt 0.1015625 0.4765625
vt 0.09375 0.4765625
vt 0.453125 0.59375
vt 0.5 0.59375
vt 0.5 0.5859375
vt 0.453125 0.5859375
vt 0.515625 0.90625
vt 0.5234375 0.90625
vt 0.5234375 0.8984375
vt 0.515625 0.8984375
vt 0.46875 0.96875
vt 0.515625 0.96875
vt 0.515625 0.9609375
vt 0.46875 0.9609375
vt 0.0859375 0.484375
vt 0.078125 0.484375
vt 0.078125 0.53125
vt 0.0859375 0.53125
vt 0.1015625 0.53125
vt 0.09375 0.53125
vt 0.09375 0.484375
vt 0.1015625 0.484375
vn 0.09229595564125724 0.09229595564125724 -0.9914448613738104
vn 0.7010573846499779 0.7010573846499779 0.1305261922200516
vn -0.09229595564125724 -0.09229595564125724 0.9914448613738104
vn -0.7010573846499779 -0.7010573846499779 -0.1305261922200516
vn -0.7071067811865476 0.7071067811865476 1.3877787807814457e-17
vn 0.7071067811865476 -0.7071067811865476 -1.3877787807814457e-17
usemtl m_0
f 12/28/7 15/27/7 13/26/7 10/25/7
f 11/32/8 12/31/8 10/30/8 9/29/8
f 16/36/9 11/35/9 9/34/9 14/33/9
f 15/40/10 16/39/10 14/38/10 13/37/10
f 14/44/11 9/43/11 10/42/11 13/41/11
f 15/48/12 12/47/12 11/46/12 16/45/12