# Made in Blockbench 4.5.2
mtllib item.mtl

o dialHand
v -0.20041184202071238 0.45053480798448 0.4362123779322601
v -0.19736814478634773 0.44698143329036344 0.422951030275301
v -0.1924650188866855 0.40640089657482503 0.44986197465748334
v -0.18942132165232084 0.4028475218807084 0.43660062700052427
v -0.20938643976477816 0.44419518951386183 0.4209392073632785
v -0.21243013699914282 0.4477485642079785 0.43420055502023747
v -0.20143961663075127 0.4000612781042068 0.43458880408850176
v -0.20448331386511592 0.40361465279832354 0.4478501517454607
vt 0.328125 0.5
vt 0.3359375 0.5
vt 0.3359375 0.484375
vt 0.328125 0.484375
vt 0.421875 0.5
vt 0.4296875 0.5
vt 0.4296875 0.484375
vt 0.421875 0.484375
vt 0.5 0.578125
vt 0.5078125 0.578125
vt 0.5078125 0.5625
vt 0.5 0.5625
vt 0.5 0.5625
vt 0.5078125 0.5625
vt 0.5078125 0.546875
vt 0.5 0.546875
vt 0.0859375 0.4765625
vt 0.078125 0.4765625
vt 0.078125 0.484375
vt 0.0859375 0.484375
vt 0.5234375 0.921875
vt 0.515625 0.921875
vt 0.515625 0.9140625
vt 0.5234375 0.9140625
vn 0.21644069222148568 -0.25268442269273683 -0.9430291667170865
vn 0.9614635982744388 0.22289950212012463 0.16094583296180445
vn -0.21644069222148568 0.25268442269273683 0.9430291667170865
vn -0.9614635982744388 -0.22289950212012463 -0.16094583296180445
vn -0.16953222685923935 0.9415234434059722 -0.29119139680476225
vn 0.16953222685923935 -0.9415234434059722 0.29119139680476225
usemtl m_0
f 4/4/1 7/3/1 5/2/1 2/1/1
f 3/8/2 4/7/2 2/6/2 1/5/2
f 8/12/3 3/11/3 1/10/3 6/9/3
f 7/16/4 8/15/4 6/14/4 5/13/4
f 6/20/5 1/19/5 2/18/5 5/17/5
f 7/24/6 4/23/6 3/22/6 8/21/6